<?xml version="1.0"?>
<svg xmlns="http://www.w3.org/2000/svg" xmlns:xlink="http://www.w3.org/1999/xlink" version="1.1" xml:space="preserve">
	<defs>
		<symbol id="logo" width="100%" height="100%" viewBox="0 0 182 40">
			<path d="M61.616 16.44C61.3373 15.9267 60.934 15.538 60.406 15.274C59.8927 14.9953 59.284 14.856 58.58 14.856C57.3627 14.856 56.3873 15.2593 55.654 16.066C54.9207 16.858 54.554 17.9213 54.554 19.256C54.554 20.6787 54.9353 21.7933 55.698 22.6C56.4753 23.392 57.5387 23.788 58.888 23.788C59.812 23.788 60.5893 23.5533 61.22 23.084C61.8653 22.6147 62.3347 21.94 62.628 21.06H57.854V18.288H66.038V21.786C65.7593 22.7247 65.2827 23.5973 64.608 24.404C63.948 25.2107 63.1047 25.8633 62.078 26.362C61.0513 26.8607 59.8927 27.11 58.602 27.11C57.0767 27.11 55.7127 26.78 54.51 26.12C53.322 25.4453 52.3907 24.514 51.716 23.326C51.056 22.138 50.726 20.7813 50.726 19.256C50.726 17.7307 51.056 16.374 51.716 15.186C52.3907 13.9833 53.322 13.052 54.51 12.392C55.698 11.7173 57.0547 11.38 58.58 11.38C60.428 11.38 61.9827 11.8273 63.244 12.722C64.52 13.6167 65.3633 14.856 65.774 16.44H61.616ZM71.8838 16.77C72.3238 16.0953 72.8738 15.5673 73.5338 15.186C74.1938 14.79 74.9271 14.592 75.7338 14.592V18.574H74.6998C73.7611 18.574 73.0571 18.7793 72.5878 19.19C72.1185 19.586 71.8838 20.29 71.8838 21.302V27H68.1218V14.724H71.8838V16.77ZM89.104 20.664C89.104 21.016 89.082 21.3827 89.038 21.764H80.524C80.5826 22.5267 80.8246 23.1133 81.25 23.524C81.69 23.92 82.2253 24.118 82.856 24.118C83.7946 24.118 84.4473 23.722 84.814 22.93H88.818C88.6126 23.7367 88.2386 24.4627 87.696 25.108C87.168 25.7533 86.5006 26.2593 85.694 26.626C84.8873 26.9927 83.9853 27.176 82.988 27.176C81.7853 27.176 80.7146 26.9193 79.776 26.406C78.8373 25.8927 78.104 25.1593 77.576 24.206C77.048 23.2527 76.784 22.138 76.784 20.862C76.784 19.586 77.0406 18.4713 77.554 17.518C78.082 16.5647 78.8153 15.8313 79.754 15.318C80.6926 14.8047 81.7706 14.548 82.988 14.548C84.176 14.548 85.232 14.7973 86.156 15.296C87.08 15.7947 87.7986 16.506 88.312 17.43C88.84 18.354 89.104 19.432 89.104 20.664ZM85.254 19.674C85.254 19.0287 85.034 18.5153 84.594 18.134C84.154 17.7527 83.604 17.562 82.944 17.562C82.3133 17.562 81.778 17.7453 81.338 18.112C80.9126 18.4787 80.6486 18.9993 80.546 19.674H85.254ZM102.661 20.664C102.661 21.016 102.639 21.3827 102.595 21.764H94.0806C94.1393 22.5267 94.3813 23.1133 94.8066 23.524C95.2466 23.92 95.7819 24.118 96.4126 24.118C97.3513 24.118 98.0039 23.722 98.3706 22.93H102.375C102.169 23.7367 101.795 24.4627 101.253 25.108C100.725 25.7533 100.057 26.2593 99.2506 26.626C98.4439 26.9927 97.5419 27.176 96.5446 27.176C95.3419 27.176 94.2713 26.9193 93.3326 26.406C92.3939 25.8927 91.6606 25.1593 91.1326 24.206C90.6046 23.2527 90.3406 22.138 90.3406 20.862C90.3406 19.586 90.5973 18.4713 91.1106 17.518C91.6386 16.5647 92.3719 15.8313 93.3106 15.318C94.2493 14.8047 95.3273 14.548 96.5446 14.548C97.7326 14.548 98.7886 14.7973 99.7126 15.296C100.637 15.7947 101.355 16.506 101.869 17.43C102.397 18.354 102.661 19.432 102.661 20.664ZM98.8106 19.674C98.8106 19.0287 98.5906 18.5153 98.1506 18.134C97.7106 17.7527 97.1606 17.562 96.5006 17.562C95.8699 17.562 95.3346 17.7453 94.8946 18.112C94.4693 18.4787 94.2053 18.9993 94.1026 19.674H98.8106ZM112.125 14.592C113.563 14.592 114.707 15.0613 115.557 16C116.423 16.924 116.855 18.2 116.855 19.828V27H113.115V20.334C113.115 19.5127 112.903 18.8747 112.477 18.42C112.052 17.9653 111.48 17.738 110.761 17.738C110.043 17.738 109.471 17.9653 109.045 18.42C108.62 18.8747 108.407 19.5127 108.407 20.334V27H104.645V14.724H108.407V16.352C108.789 15.8093 109.302 15.384 109.947 15.076C110.593 14.7533 111.319 14.592 112.125 14.592ZM123.494 19.256C123.494 17.7307 123.824 16.374 124.484 15.186C125.144 13.9833 126.06 13.052 127.234 12.392C128.422 11.7173 129.764 11.38 131.26 11.38C133.093 11.38 134.662 11.864 135.968 12.832C137.273 13.8 138.146 15.12 138.586 16.792H134.45C134.142 16.1467 133.702 15.6553 133.13 15.318C132.572 14.9807 131.934 14.812 131.216 14.812C130.057 14.812 129.118 15.2153 128.4 16.022C127.681 16.8287 127.322 17.9067 127.322 19.256C127.322 20.6053 127.681 21.6833 128.4 22.49C129.118 23.2967 130.057 23.7 131.216 23.7C131.934 23.7 132.572 23.5313 133.13 23.194C133.702 22.8567 134.142 22.3653 134.45 21.72H138.586C138.146 23.392 137.273 24.712 135.968 25.68C134.662 26.6333 133.093 27.11 131.26 27.11C129.764 27.11 128.422 26.78 127.234 26.12C126.06 25.4453 125.144 24.514 124.484 23.326C123.824 22.138 123.494 20.7813 123.494 19.256ZM140.141 20.84C140.141 19.5787 140.376 18.4713 140.845 17.518C141.329 16.5647 141.982 15.8313 142.803 15.318C143.625 14.8047 144.541 14.548 145.553 14.548C146.419 14.548 147.174 14.724 147.819 15.076C148.479 15.428 148.985 15.89 149.337 16.462V14.724H153.099V27H149.337V25.262C148.971 25.834 148.457 26.296 147.797 26.648C147.152 27 146.397 27.176 145.531 27.176C144.534 27.176 143.625 26.9193 142.803 26.406C141.982 25.878 141.329 25.1373 140.845 24.184C140.376 23.216 140.141 22.1013 140.141 20.84ZM149.337 20.862C149.337 19.9233 149.073 19.1827 148.545 18.64C148.032 18.0973 147.401 17.826 146.653 17.826C145.905 17.826 145.267 18.0973 144.739 18.64C144.226 19.168 143.969 19.9013 143.969 20.84C143.969 21.7787 144.226 22.5267 144.739 23.084C145.267 23.6267 145.905 23.898 146.653 23.898C147.401 23.898 148.032 23.6267 148.545 23.084C149.073 22.5413 149.337 21.8007 149.337 20.862ZM160.815 27.176C159.744 27.176 158.791 26.9927 157.955 26.626C157.119 26.2593 156.459 25.7607 155.975 25.13C155.491 24.4847 155.22 23.766 155.161 22.974H158.879C158.923 23.3993 159.121 23.744 159.473 24.008C159.825 24.272 160.258 24.404 160.771 24.404C161.24 24.404 161.6 24.316 161.849 24.14C162.113 23.9493 162.245 23.7073 162.245 23.414C162.245 23.062 162.062 22.8053 161.695 22.644C161.328 22.468 160.734 22.2773 159.913 22.072C159.033 21.8667 158.3 21.654 157.713 21.434C157.126 21.1993 156.62 20.84 156.195 20.356C155.77 19.8573 155.557 19.19 155.557 18.354C155.557 17.65 155.748 17.012 156.129 16.44C156.525 15.8533 157.097 15.3913 157.845 15.054C158.608 14.7167 159.51 14.548 160.551 14.548C162.091 14.548 163.301 14.9293 164.181 15.692C165.076 16.4547 165.589 17.4667 165.721 18.728H162.245C162.186 18.3027 161.996 17.9653 161.673 17.716C161.365 17.4667 160.954 17.342 160.441 17.342C160.001 17.342 159.664 17.43 159.429 17.606C159.194 17.7673 159.077 17.9947 159.077 18.288C159.077 18.64 159.26 18.904 159.627 19.08C160.008 19.256 160.595 19.432 161.387 19.608C162.296 19.8427 163.037 20.0773 163.609 20.312C164.181 20.532 164.68 20.8987 165.105 21.412C165.545 21.9107 165.772 22.5853 165.787 23.436C165.787 24.1547 165.582 24.8 165.171 25.372C164.775 25.9293 164.196 26.3693 163.433 26.692C162.685 27.0147 161.812 27.176 160.815 27.176ZM175.635 14.592C177.043 14.592 178.172 15.0613 179.023 16C179.873 16.924 180.299 18.2 180.299 19.828V27H176.559V20.334C176.559 19.5127 176.346 18.8747 175.921 18.42C175.495 17.9653 174.923 17.738 174.205 17.738C173.486 17.738 172.914 17.9653 172.489 18.42C172.063 18.8747 171.851 19.5127 171.851 20.334V27H168.089V10.72H171.851V16.374C172.232 15.8313 172.753 15.3987 173.413 15.076C174.073 14.7533 174.813 14.592 175.635 14.592Z" fill="currentColor" />
			<mask id="mask0_290_4011" style="mask-type:alpha" maskUnits="userSpaceOnUse" x="0" y="0" width="40" height="40">
				<path d="M39.9999 20.0001C39.9999 8.95439 31.0455 0 20.0001 0C8.95439 0 0 8.95439 0 20.0001C0 31.0457 8.95439 39.9996 20.0001 39.9996C31.0455 39.9996 39.9999 31.0457 39.9999 20.0001Z" fill="#0D6B52" />
			</mask>
			<g mask="url(#mask0_290_4011)">
				<path d="M39.9999 20.0001C39.9999 8.95439 31.0455 0 20.0001 0C8.95439 0 0 8.95439 0 20.0001C0 31.0457 8.95439 39.9996 20.0001 39.9996C31.0455 39.9996 39.9999 31.0457 39.9999 20.0001Z" fill="#0D6B52" />
				<path d="M3.58537 15.763L3.5854 15.763C3.3457 15.4915 3.34103 15.0581 3.62729 14.7906M3.58537 15.763L15.7258 18.7787M3.58537 15.763L3.58943 15.7675L3.59109 15.7693L3.59737 15.7763L3.60392 15.783C3.93829 16.1258 4.1953 16.5567 4.36343 17.0322L4.36455 17.0353C4.53565 17.5092 4.61527 18.0307 4.64161 18.5745C4.6937 19.6708 4.54112 20.7818 4.34902 21.9192C4.26891 22.3906 4.18286 22.8706 4.0962 23.3539C3.97644 24.0218 3.85552 24.6961 3.74756 25.3634L3.74711 25.3663C3.5656 26.5317 3.42273 27.7328 3.42381 28.9616L3.42382 28.9638C3.42711 29.5735 3.45886 30.1958 3.54712 30.8213C3.59018 31.138 3.64792 31.4446 3.71877 31.7588L3.71869 31.7588L3.72089 31.7678C3.73039 31.8065 3.7406 31.8503 3.75149 31.897C3.77461 31.9961 3.80079 32.1083 3.82966 32.2133L3.82963 32.2133L3.83111 32.2185C3.84228 32.2575 3.85439 32.3014 3.86723 32.3479C3.8957 32.4512 3.9278 32.5676 3.9614 32.6728C4.33459 33.8866 4.927 35.0629 5.75593 36.0765L5.75786 36.0788C6.17405 36.5814 6.64684 37.0457 7.17441 37.4459L7.17437 37.4459L7.18081 37.4507C7.70666 37.8365 8.28221 38.174 8.90202 38.4194C9.51933 38.6711 10.168 38.8261 10.8187 38.8935M3.58537 15.763L10.6885 22.7616M3.62729 14.7906C3.71471 14.7088 3.81831 14.6554 3.9232 14.6284L3.9245 14.6281C5.33335 14.27 6.82028 14.1643 8.29046 14.3569C9.75945 14.5459 11.1937 15.0265 12.51 15.7321C13.8271 16.4366 15.0288 17.3601 16.0817 18.4275M3.62729 14.7906C3.62709 14.7908 3.62689 14.791 3.62669 14.7912L3.9688 15.1558L3.62789 14.7901C3.62769 14.7903 3.62749 14.7905 3.62729 14.7906ZM16.0817 18.4275L15.7258 18.7787M16.0817 18.4275C16.0817 18.4275 16.0817 18.4275 16.0817 18.4275L15.7258 18.7787M16.0817 18.4275C17.1357 19.4957 18.0447 20.7121 18.7847 22.0259L18.7849 22.0263C19.5239 23.3406 20.0977 24.7605 20.4495 26.2437L20.4497 26.2443C20.7993 27.7263 20.9244 29.2845 20.7263 30.82M15.7258 18.7787C16.7475 19.8143 17.6301 20.9948 18.3491 22.2713C19.067 23.5483 19.6227 24.9248 19.963 26.3591C20.3011 27.7919 20.4197 29.289 20.2304 30.756M20.7263 30.82C20.7263 30.82 20.7263 30.82 20.7263 30.82L20.2304 30.756M20.7263 30.82C20.6273 31.5874 20.4466 32.3472 20.1772 33.0761C19.9085 33.8065 19.5485 34.5024 19.1061 35.1384C18.6656 35.7743 18.1474 36.3488 17.5742 36.8514C17.2859 37.1049 16.9878 37.3345 16.6785 37.552L16.6724 37.5563L16.6662 37.5604C16.625 37.5875 16.5804 37.6175 16.5339 37.6487C16.5154 37.6611 16.4967 37.6736 16.4777 37.6864C16.7617 38.5526 17.0643 39.367 17.3989 40.1031L17.3997 40.1049C17.7441 40.8703 18.1178 41.5516 18.5091 42.1246L18.5112 42.1276L18.5111 42.1276C18.8985 42.7039 19.304 43.1731 19.6908 43.5362L19.6919 43.5372C20.078 43.9019 20.4445 44.1703 20.7562 44.3639C20.8088 44.3943 20.8562 44.4222 20.8996 44.4477C21.0126 44.5141 21.0976 44.564 21.1725 44.5995L21.1807 44.6034L21.1807 44.6035L21.3615 44.6936L21.3624 44.694L21.4279 44.727L21.5008 44.7583L21.3054 45.2137L21.5008 44.7583L21.7511 44.8655L21.8152 44.8929L21.8314 44.8998L21.8354 44.9016L21.8364 44.902L21.8367 44.9021L21.8367 44.9021L21.8367 44.9021L21.8375 44.9024C22.5164 45.1934 22.8527 45.9814 22.5925 46.6729L22.5924 46.673C22.3259 47.3808 21.5374 47.7166 20.8423 47.4189L20.84 47.418L20.84 47.4179C20.8195 47.409 20.7974 47.3987 20.7803 47.3904L20.7779 47.3893L20.7779 47.3893L20.7779 47.3893L20.7778 47.3892L20.7776 47.3891L20.7765 47.3886L20.7725 47.3866L20.7566 47.3788L20.6936 47.3479L20.4481 47.2271L20.4473 47.2267L20.3615 47.1846L20.3521 47.1799L20.3428 47.1748L20.2348 47.1151L20.2317 47.1134L20.2317 47.1134C20.2172 47.1053 20.2024 47.097 20.1874 47.0886C20.125 47.0537 20.0587 47.0165 19.988 46.9771C19.8243 46.8864 19.6601 46.7776 19.4984 46.6706C19.4621 46.6465 19.4258 46.6225 19.3897 46.5988L19.3792 46.5919L19.3793 46.5917C18.9441 46.29 18.4454 45.8829 17.9432 45.3569C17.4375 44.8305 16.9396 44.1845 16.4932 43.4427C16.0419 42.7035 15.6433 41.8733 15.2972 40.9885C14.9471 40.1021 14.6535 39.1585 14.3915 38.1892L14.3912 38.1884C13.8883 36.3155 13.5133 34.3167 13.144 32.3484C13.1305 32.2769 13.1171 32.2055 13.1037 32.1341L13.1037 32.1338C12.7212 30.089 12.3371 28.0737 11.8428 26.2229L11.8426 26.2222C11.5976 25.2996 11.3227 24.4211 11.0225 23.6046C10.9148 23.315 10.8033 23.0337 10.6885 22.7616M20.7263 30.82L20.2304 30.756M20.2304 30.756C20.1359 31.4886 19.9637 32.2115 19.7082 32.9027C19.4539 33.5944 19.1133 34.2524 18.6956 34.8528C18.2792 35.4542 17.7885 35.9986 17.2446 36.4754C16.9721 36.715 16.6885 36.9337 16.3909 37.143C16.3426 37.1749 16.2939 37.2075 16.2452 37.2402C16.1407 37.3103 16.0359 37.3807 15.9337 37.4438L15.8857 37.4721M10.6885 22.7616C10.9528 24.0624 11.0179 25.3533 11.0536 26.6735C11.0601 26.913 11.0657 27.1535 11.0712 27.3951C11.1388 30.3232 11.2106 33.4361 13.0075 37.3337L13.0076 37.3339C13.0393 37.4027 13.1058 37.5488 13.1373 37.7168C13.1679 37.8798 13.1826 38.1565 12.9964 38.4041L12.9961 38.4044C12.8355 38.6177 12.6116 38.7428 12.4118 38.8152C12.2095 38.8885 11.9949 38.9217 11.8012 38.9269C11.4741 38.9398 11.1456 38.9286 10.8187 38.8935M10.6885 22.7616C10.5866 22.2601 10.4551 21.7572 10.2843 21.2505C10.2843 21.2504 10.2843 21.2504 10.2843 21.2503C10.13 20.7927 9.94362 20.332 9.718 19.8666C9.97605 20.2515 10.2328 20.6797 10.4794 21.1474C10.8411 21.832 11.1824 22.5998 11.4914 23.4313C11.7977 24.264 12.0772 25.1577 12.3259 26.0938C12.8259 27.9659 13.2131 29.9995 13.5951 32.0418C13.6081 32.1108 13.621 32.1798 13.634 32.2488C14.0044 34.223 14.3763 36.2048 14.8741 38.0587C15.1333 39.0172 15.4214 39.942 15.7625 40.8056C16.1005 41.6696 16.4871 42.4734 16.9208 43.1836C17.3494 43.896 17.8254 44.5126 18.3043 45.011C18.7816 45.5111 19.2545 45.8968 19.6642 46.1809C19.7044 46.2073 19.7434 46.2331 19.7814 46.2582C19.9422 46.3646 20.0858 46.4597 20.2307 46.54C20.3021 46.5798 20.3692 46.6173 20.4318 46.6524C20.4468 46.6608 20.4615 46.669 20.4759 46.6771L20.5835 46.7365L20.6688 46.7785L20.9983 46.9405C21.0108 46.9465 21.0264 46.9538 21.0392 46.9593C21.4726 47.1449 21.9584 46.9378 22.1245 46.4969C22.2905 46.0557 22.0738 45.5477 21.6405 45.362C21.6405 45.362 21.5233 45.312 21.3036 45.2178L21.2167 45.1805L21.1381 45.1409L20.958 45.0512C20.8618 45.0055 20.749 44.9392 20.6271 44.8676C20.5854 44.8431 20.5427 44.818 20.4992 44.7929C20.1593 44.5823 19.7634 44.2925 19.3486 43.9007C18.9328 43.5104 18.5033 43.0122 18.0962 42.4066C17.6851 41.8046 17.2976 41.0967 16.9437 40.31C16.5868 39.5249 16.268 38.6595 15.9718 37.7478M10.8187 38.8935C10.8183 38.8934 10.8179 38.8934 10.8175 38.8933L10.8711 38.3962L10.8197 38.8936C10.8194 38.8935 10.8191 38.8935 10.8187 38.8935ZM15.8857 37.4721C15.8961 37.5052 15.9064 37.5385 15.9166 37.5718C15.9348 37.6308 15.953 37.6898 15.9718 37.7478M15.8857 37.4721L15.9403 37.455L15.9406 37.4549L16.3629 37.3227C16.3747 37.3604 16.3855 37.3956 16.396 37.4295C16.4134 37.4858 16.4297 37.5387 16.4475 37.594L16.0966 37.7075L16.0902 37.7095L16.0359 37.7271L15.9718 37.7478M15.8857 37.4721L16.0359 37.727L15.9718 37.7478" fill="#31B884" stroke="#0D6B52" />
				<path d="M24.7793 11.8014C18.6252 10.0026 12.5337 12.5335 12.5337 12.5335C17.6004 29.3332 11.0054 37.8665 11.0054 37.8665C11.0054 37.8665 14.9335 39.9996 20.8002 39.9996C20.8002 39.9996 29.5585 19.336 24.7793 11.8014Z" fill="#62C29C" />
				<path fill-rule="evenodd" clip-rule="evenodd" d="M24.7793 11.8014C18.6252 10.0026 12.5337 12.5335 12.5337 12.5335C17.6004 29.3332 11.0054 37.8665 11.0054 37.8665C11.0054 37.8665 14.9335 39.9996 20.8002 39.9996C20.8002 39.9996 29.5585 19.336 24.7793 11.8014Z" fill="none" stroke="#0D6B52" stroke-miterlimit="2" />
				<path d="M38.6252 12.6988C33.0669 5.60027 23.7338 6.4001 23.7338 6.4001C28.8004 31.2002 13.3271 38.8583 13.3271 38.8583C13.3271 38.8583 22.6671 42.3998 30.721 36.8862C30.721 36.8862 44.2668 28.2667 38.6252 12.6988Z" fill="#B5DA9E" />
				<path fill-rule="evenodd" clip-rule="evenodd" d="M38.6252 12.6988C33.0669 5.60027 23.7338 6.4001 23.7338 6.4001C28.8004 31.2002 13.3271 38.8583 13.3271 38.8583C13.3271 38.8583 22.6671 42.3998 30.721 36.8862C30.721 36.8862 44.2668 28.2667 38.6252 12.6988Z" fill="none" stroke="#0D6B52" stroke-miterlimit="2" />
				<path d="M16 39.4667C17.5068 38.4621 18.9325 37.0043 20.1326 35.5195" fill="none" stroke="#0D6B52" stroke-miterlimit="2" />
				<path d="M39.7326 16.7997C36.7004 12.2511 32.5326 10.1776 29.2174 9.1543C28.9274 10.5553 27.8343 11.4609 26.4107 11.6862C27.3653 21.9275 24.6723 28.7954 21.9981 32.9407C21.4758 33.7504 20.8436 34.6395 20.1323 35.519" fill="none" stroke="#0D6B52" stroke-miterlimit="2" />
				<path d="M31.4364 36.409C30.8824 36.4288 30.3307 36.3552 29.8013 36.1802" fill="none" stroke="#0D6B52" stroke-miterlimit="2" />
				<path d="M29.8018 36.1801C29.5753 36.1055 29.3531 36.0117 29.1362 35.8988C26.555 34.5571 25.7458 31.0011 27.3285 27.9566C28.9112 24.9117 32.2868 23.5312 34.8676 24.8729C36.5294 25.7367 37.4571 27.5182 37.4845 29.4903" fill="none" stroke="#0D6B52" stroke-miterlimit="2" />
				<path d="M24.69 13.6323C23.5982 13.3789 21.2756 13.0225 20.06 13.0225C19.1168 13.0225 18.2246 13.1019 17.4093 13.2175C17.4126 13.2746 17.418 13.3314 17.418 13.3893C17.418 14.6764 16.5552 15.7598 15.3772 16.099C17.6463 26.7581 15.6017 33.3914 12.7334 38.55" fill="none" stroke="#0D6B52" stroke-miterlimit="2" />
			</g>
		</symbol>
		<symbol id="email" width="100%" height="100%" viewBox="0 0 22 18">
			<path fill-rule="evenodd" clip-rule="evenodd" d="M1.37868 1.71193C0.5 2.59061 0.5 4.00482 0.5 6.83325V11.1666C0.5 13.995 0.5 15.4092 1.37868 16.2879C2.25736 17.1666 3.67157 17.1666 6.5 17.1666H15.5C18.3284 17.1666 19.7426 17.1666 20.6213 16.2879C21.5 15.4092 21.5 13.995 21.5 11.1666V6.83325C21.5 4.00483 21.5 2.59061 20.6213 1.71193C19.7426 0.833252 18.3284 0.833252 15.5 0.833252H6.5C3.67157 0.833252 2.25736 0.833252 1.37868 1.71193ZM4.5547 4.66787C4.09517 4.36152 3.4743 4.48569 3.16795 4.94522C2.8616 5.40475 2.98577 6.02562 3.4453 6.33197L9.8906 10.6288C10.5624 11.0767 11.4376 11.0767 12.1094 10.6288L18.5547 6.33197C19.0142 6.02562 19.1384 5.40475 18.8321 4.94522C18.5257 4.48569 17.9048 4.36152 17.4453 4.66787L11 8.96474L4.5547 4.66787Z" fill="currentColor" />
		</symbol>
		<symbol id="eye" width="100%" height="100%" viewBox="0 0 24 24">
			<path fill-rule="evenodd" clip-rule="evenodd" d="M20.7703 12C20.7703 11.6412 20.5762 11.4056 20.188 10.9343C18.768 9.21014 15.6357 6 12 6C8.36428 6 5.23207 9.21014 3.81198 10.9343C3.42382 11.4056 3.22974 11.6412 3.22974 12C3.22974 12.3588 3.42382 12.5944 3.81198 13.0657C5.23207 14.7899 8.36428 18 12 18C15.6357 18 18.768 14.7899 20.188 13.0657C20.5762 12.5944 20.7703 12.3588 20.7703 12ZM12 15C13.6569 15 15 13.6569 15 12C15 10.3431 13.6569 9 12 9C10.3432 9 9.00002 10.3431 9.00002 12C9.00002 13.6569 10.3432 15 12 15Z" fill="currentColor" />
		</symbol>
		<symbol id="eye-hiden" width="100%" height="100%" viewBox="0 0 24 24">
			<path fill-rule="evenodd" clip-rule="evenodd" d="M18.2371 15.1157C19.0484 14.3833 19.7137 13.6416 20.188 13.0657C20.5762 12.5944 20.7703 12.3588 20.7703 12C20.7703 11.6412 20.5762 11.4056 20.188 10.9343C18.768 9.21014 15.6357 6 12 6C11.1605 6 10.3479 6.17115 9.57695 6.45563L12.1238 9.00251C13.6822 9.06577 14.9342 10.3178 14.9975 11.8762L18.2371 15.1157ZM9.39308 10.5144C9.14295 10.9524 9.00001 11.4595 9.00001 12C9.00001 13.6569 10.3432 15 12 15C12.5405 15 13.0476 14.8571 13.4856 14.6069L15.7872 16.9085C14.636 17.5555 13.3529 18 12 18C8.36428 18 5.23207 14.7899 3.81198 13.0657C3.42382 12.5944 3.22974 12.3588 3.22974 12C3.22974 11.6412 3.42382 11.4056 3.81198 10.9343C4.48541 10.1167 5.54385 8.96489 6.85842 7.97974L9.39308 10.5144Z" fill="currentColor" />
			<path d="M5 2L21 18" fill="none" stroke="currentColor" stroke-width="2" />
		</symbol>
		<symbol id="phone" width="100%" height="100%" viewBox="0 0 22 22">
			<path d="M0.599998 1.9001C0.599998 1.18213 1.18203 0.600098 1.9 0.600098H4.69873C5.33422 0.600098 5.87657 1.05953 5.98105 1.68638L6.94215 7.45301C7.03597 8.01596 6.75167 8.57426 6.24122 8.82949L4.22864 9.83578C5.67982 13.4419 8.55818 16.3203 12.1643 17.7715L13.1706 15.7589C13.4258 15.2484 13.9841 14.9641 14.5471 15.0579L20.3137 16.019C20.9406 16.1235 21.4 16.6659 21.4 17.3014V20.1001C21.4 20.8181 20.818 21.4001 20.1 21.4001H17.5C8.16639 21.4001 0.599998 13.8337 0.599998 4.5001V1.9001Z" fill="currentColor" />
		</symbol>
		<symbol id="menu" width="100%" height="100%" viewBox="0 0 20 18">
			<path fill-rule="evenodd" clip-rule="evenodd" d="M0.199951 2.0001C0.199951 1.2269 0.826752 0.600098 1.59995 0.600098H18.4C19.1732 0.600098 19.8 1.2269 19.8 2.0001C19.8 2.7733 19.1732 3.4001 18.4 3.4001H1.59995C0.826752 3.4001 0.199951 2.7733 0.199951 2.0001Z" fill="currentColor" />
			<path fill-rule="evenodd" clip-rule="evenodd" d="M0.199951 9.0001C0.199951 8.2269 0.826752 7.6001 1.59995 7.6001H18.4C19.1732 7.6001 19.8 8.2269 19.8 9.0001C19.8 9.7733 19.1732 10.4001 18.4 10.4001H1.59995C0.826752 10.4001 0.199951 9.7733 0.199951 9.0001Z" fill="currentColor" />
			<path fill-rule="evenodd" clip-rule="evenodd" d="M0.199951 16.0001C0.199951 15.2269 0.826752 14.6001 1.59995 14.6001H18.4C19.1732 14.6001 19.8 15.2269 19.8 16.0001C19.8 16.7733 19.1732 17.4001 18.4 17.4001H1.59995C0.826752 17.4001 0.199951 16.7733 0.199951 16.0001Z" fill="currentColor" />
		</symbol>
		<symbol id="arrow-right" width="100%" height="100%" viewBox="0 0 15 10">
			<path d="M13 5L13.7071 4.29289L14.4142 5L13.7071 5.70711L13 5ZM1 6C0.447715 6 0 5.55228 0 5C0 4.44772 0.447715 4 1 4V6ZM9.70711 0.292893L13.7071 4.29289L12.2929 5.70711L8.29289 1.70711L9.70711 0.292893ZM13.7071 5.70711L9.70711 9.70711L8.29289 8.29289L12.2929 4.29289L13.7071 5.70711ZM13 6H1V4H13V6Z" fill="currentColor" />
		</symbol>
		<symbol id="arrow-left" width="100%" height="100%" viewBox="0 0 15 10">
			<path d="M2 5L1.29289 4.29289L0.585786 5L1.29289 5.70711L2 5ZM14 6C14.5523 6 15 5.55228 15 5C15 4.44772 14.5523 4 14 4V6ZM5.29289 0.292893L1.29289 4.29289L2.70711 5.70711L6.70711 1.70711L5.29289 0.292893ZM1.29289 5.70711L5.29289 9.70711L6.70711 8.29289L2.70711 4.29289L1.29289 5.70711ZM2 6H14V4H2V6Z" fill="currentColor" />
		</symbol>
		<symbol id="gal-ochka" width="100%" height="100%" viewBox="0 0 12 10">
			<path d="M6.23497 8.79946C5.9649 9.16602 5.54433 9.3913 5.0896 9.41369C4.63487 9.43632 4.19445 9.25304 3.88975 8.91464L1.15929 5.88456C0.725328 5.40328 0.763876 4.6614 1.24515 4.22744C1.72689 3.79348 2.46831 3.83226 2.90227 4.31377L4.83407 6.45771C4.8627 6.48956 4.90425 6.50664 4.94695 6.50456C4.98988 6.50249 5.02912 6.48102 5.05475 6.44686L9.02546 1.0614C9.40979 0.539728 10.1443 0.428699 10.6662 0.813259C11.1876 1.19782 11.2984 1.93232 10.9139 2.45376L6.23497 8.79946Z" fill="currentColor" />
		</symbol>
		<symbol id="to-right" width="100%" height="100%" viewBox="0 0 8 14">
			<path d="M5.63663 7.00019L1.15148 2.51504C0.7935 2.15706 0.7935 1.57666 1.15148 1.21868C1.50946 0.8607 2.08986 0.8607 2.44784 1.21868L7.58118 6.35201C7.93916 6.70999 7.93916 7.29039 7.58118 7.64838L2.44784 12.7817C2.08986 13.1397 1.50946 13.1397 1.15148 12.7817C0.7935 12.4237 0.7935 11.8433 1.15148 11.4853L5.63663 7.00019Z" fill="currentColor" />
		</symbol>
		<symbol id="to-left" width="100%" height="100%" viewBox="0 0 8 14">
			<path d="M2.36337 7.00019L6.84852 2.51504C7.2065 2.15706 7.2065 1.57666 6.84852 1.21868C6.49054 0.8607 5.91014 0.8607 5.55216 1.21868L0.418823 6.35201C0.0608425 6.70999 0.0608425 7.29039 0.418823 7.64838L5.55216 12.7817C5.91014 13.1397 6.49054 13.1397 6.84852 12.7817C7.2065 12.4237 7.2065 11.8433 6.84852 11.4853L2.36337 7.00019Z" fill="currentColor" />
		</symbol>
		<symbol id="play" width="100%" height="100%" viewBox="0 0 32 38">
			<path d="M5.27275 38C4.93519 38 4.61146 37.8332 4.37278 37.5363C4.13409 37.2393 4 36.8366 4 36.4167V1.58307C4.00004 1.30794 4.05771 1.03756 4.16732 0.79859C4.27694 0.559623 4.43472 0.360315 4.62511 0.220312C4.81551 0.0803081 5.03194 0.00444103 5.25308 0.000189119C5.47422 -0.00406279 5.69243 0.0634472 5.88621 0.196064L31.3411 17.6129C31.5407 17.7495 31.7071 17.9503 31.823 18.1943C31.9389 18.4383 32 18.7165 32 18.9999C32 19.2833 31.9389 19.5615 31.823 19.8054C31.7071 20.0494 31.5407 20.2502 31.3411 20.3869L5.88621 37.8037C5.69829 37.9324 5.48727 37.9999 5.27275 38Z" fill="currentColor" />
		</symbol>
		<symbol id="cross" width="100%" height="100%" viewBox="0 0 16 16">
			<path d="M1 15L15 1M1 1L15 15" fill="none" stroke="currentColor" stroke-width="2" stroke-linecap="round" stroke-linejoin="round" />
		</symbol>
		<symbol id="grip-horizontal" width="100%" height="100%" viewBox="0 0 18 18">
			<path d="M14.25 10.5C13.8358 10.5 13.5 10.8358 13.5 11.25C13.5 11.6642 13.8358 12 14.25 12C14.6642 12 15 11.6642 15 11.25C15 10.8358 14.6642 10.5 14.25 10.5Z" fill="none" stroke="currentColor" stroke-width="2" stroke-linecap="round" stroke-linejoin="round" />
			<path d="M14.25 6C13.8358 6 13.5 6.33579 13.5 6.75C13.5 7.16421 13.8358 7.5 14.25 7.5C14.6642 7.5 15 7.16421 15 6.75C15 6.33579 14.6642 6 14.25 6Z" fill="none" stroke="currentColor" stroke-width="2" stroke-linecap="round" stroke-linejoin="round" />
			<path d="M9 10.5C8.58579 10.5 8.25 10.8358 8.25 11.25C8.25 11.6642 8.58579 12 9 12C9.41421 12 9.75 11.6642 9.75 11.25C9.75 10.8358 9.41421 10.5 9 10.5Z" fill="none" stroke="currentColor" stroke-width="2" stroke-linecap="round" stroke-linejoin="round" />
			<path d="M9 6C8.58579 6 8.25 6.33579 8.25 6.75C8.25 7.16421 8.58579 7.5 9 7.5C9.41421 7.5 9.75 7.16421 9.75 6.75C9.75 6.33579 9.41421 6 9 6Z" fill="none" stroke="currentColor" stroke-width="2" stroke-linecap="round" stroke-linejoin="round" />
			<path d="M3.75 10.5C3.33579 10.5 3 10.8358 3 11.25C3 11.6642 3.33579 12 3.75 12C4.16421 12 4.5 11.6642 4.5 11.25C4.5 10.8358 4.16421 10.5 3.75 10.5Z" fill="none" stroke="currentColor" stroke-width="2" stroke-linecap="round" stroke-linejoin="round" />
			<path d="M3.75 6C3.33579 6 3 6.33578 3 6.75C3 7.16421 3.33579 7.5 3.75 7.5C4.16421 7.5 4.5 7.16421 4.5 6.75C4.5 6.33578 4.16421 6 3.75 6Z" fill="none" stroke="currentColor" stroke-width="2" stroke-linecap="round" stroke-linejoin="round" />
		</symbol>
		<symbol id="rub-circle" width="100%" height="100%" viewBox="0 0 18 18">
			<path d="M9 15.75C12.7279 15.75 15.75 12.7279 15.75 8.99997C15.75 5.27205 12.7279 2.24997 9 2.24997C5.27208 2.24997 2.25 5.27205 2.25 8.99997C2.25 12.7279 5.27208 15.75 9 15.75Z" stroke="currentColor" fill="none" stroke-width="1.6" stroke-linecap="round" stroke-linejoin="round" />
			<path d="M9.76953 10.2558H5.50781V8.90029H9.72266C10.0404 8.90029 10.3008 8.85341 10.5039 8.75966C10.707 8.66591 10.8568 8.5331 10.9531 8.36122C11.0495 8.18935 11.0977 7.98622 11.0977 7.75185C11.0977 7.52268 11.0495 7.31565 10.9531 7.13075C10.8568 6.94586 10.7096 6.79872 10.5117 6.68935C10.3138 6.57997 10.0664 6.52529 9.76953 6.52529H8.32422V13.1503H6.64453V5.15029H9.76953C10.4023 5.15029 10.944 5.26357 11.3945 5.49013C11.8477 5.71409 12.194 6.02138 12.4336 6.412C12.6732 6.80002 12.7917 7.24013 12.7891 7.73232C12.7917 8.24794 12.6706 8.69456 12.4258 9.07216C12.181 9.44976 11.832 9.74143 11.3789 9.94716C10.9258 10.1529 10.3893 10.2558 9.76953 10.2558ZM10.0703 10.7714V12.1268H5.50781V10.7714H10.0703Z" fill="currentColor" />
		</symbol>
		<symbol id="chart" width="100%" height="100%" viewBox="0 0 24 24">
			<path d="M8 12H4C3.44772 12 3 12.4477 3 13V19C3 19.5523 3.44772 20 4 20H8C8.55228 20 9 19.5523 9 19V13C9 12.4477 8.55228 12 8 12Z" stroke="currentColor" fill="none" stroke-width="2" stroke-linecap="round" stroke-linejoin="round" />
			<path d="M14 8H10C9.44772 8 9 8.44772 9 9V19C9 19.5523 9.44772 20 10 20H14C14.5523 20 15 19.5523 15 19V9C15 8.44772 14.5523 8 14 8Z" stroke="currentColor" fill="none" stroke-width="2" stroke-linecap="round" stroke-linejoin="round" />
			<path d="M20 4H16C15.4477 4 15 4.44772 15 5V19C15 19.5523 15.4477 20 16 20H20C20.5523 20 21 19.5523 21 19V5C21 4.44772 20.5523 4 20 4Z" stroke="currentColor" fill="none" stroke-width="2" stroke-linecap="round" stroke-linejoin="round" />
			<path d="M4 20H18" stroke="currentColor" fill="none" stroke-width="2" stroke-linecap="round" stroke-linejoin="round" />
		</symbol>
		<symbol id="columns" width="100%" height="100%" viewBox="0 0 24 24">
			<path d="M4 5.99997H9.5" stroke="currentColor" fill="none" stroke-width="2" stroke-linecap="round" stroke-linejoin="round" />
			<path d="M4 9.99997H9.5" stroke="currentColor" fill="none" stroke-width="2" stroke-linecap="round" stroke-linejoin="round" />
			<path d="M4 14H9.5" stroke="currentColor" fill="none" stroke-width="2" stroke-linecap="round" stroke-linejoin="round" />
			<path d="M4 18H9.5" stroke="currentColor" fill="none" stroke-width="2" stroke-linecap="round" stroke-linejoin="round" />
			<path d="M14.5 5.99997H20" stroke="currentColor" fill="none" stroke-width="2" stroke-linecap="round" stroke-linejoin="round" />
			<path d="M14.5 9.99997H20" stroke="currentColor" fill="none" stroke-width="2" stroke-linecap="round" stroke-linejoin="round" />
			<path d="M14.5 14H20" stroke="currentColor" fill="none" stroke-width="2" stroke-linecap="round" stroke-linejoin="round" />
			<path d="M14.5 18H20" stroke="currentColor" fill="none" stroke-width="2" stroke-linecap="round" stroke-linejoin="round" />
		</symbol>
		<symbol id="settings" width="100%" height="100%" viewBox="0 0 24 24">
			<path d="M10.325 4.317C10.751 2.561 13.249 2.561 13.675 4.317C13.7389 4.5808 13.8642 4.82578 14.0407 5.032C14.2172 5.23822 14.4399 5.39985 14.6907 5.50375C14.9414 5.60764 15.2132 5.65085 15.4838 5.62987C15.7544 5.60889 16.0162 5.5243 16.248 5.383C17.791 4.443 19.558 6.209 18.618 7.753C18.4769 7.98466 18.3924 8.24634 18.3715 8.51677C18.3506 8.78721 18.3938 9.05877 18.4975 9.30938C18.6013 9.55999 18.7627 9.78258 18.9687 9.95905C19.1747 10.1355 19.4194 10.2609 19.683 10.325C21.439 10.751 21.439 13.249 19.683 13.675C19.4192 13.7389 19.1742 13.8642 18.968 14.0407C18.7618 14.2172 18.6001 14.4399 18.4963 14.6907C18.3924 14.9414 18.3491 15.2132 18.3701 15.4838C18.3911 15.7544 18.4757 16.0162 18.617 16.248C19.557 17.791 17.791 19.558 16.247 18.618C16.0153 18.4769 15.7537 18.3924 15.4832 18.3715C15.2128 18.3506 14.9412 18.3938 14.6906 18.4975C14.44 18.6013 14.2174 18.7627 14.0409 18.9687C13.8645 19.1747 13.7391 19.4194 13.675 19.683C13.249 21.439 10.751 21.439 10.325 19.683C10.2611 19.4192 10.1358 19.1742 9.95929 18.968C9.7828 18.7618 9.56011 18.6001 9.30935 18.4963C9.05859 18.3924 8.78683 18.3491 8.51621 18.3701C8.24559 18.3911 7.98375 18.4757 7.752 18.617C6.209 19.557 4.442 17.791 5.382 16.247C5.5231 16.0153 5.60755 15.7537 5.62848 15.4832C5.64942 15.2128 5.60624 14.9412 5.50247 14.6906C5.3987 14.44 5.23726 14.2174 5.03127 14.0409C4.82529 13.8645 4.58056 13.7391 4.317 13.675C2.561 13.249 2.561 10.751 4.317 10.325C4.5808 10.2611 4.82578 10.1358 5.032 9.95929C5.23822 9.7828 5.39985 9.56011 5.50375 9.30935C5.60764 9.05859 5.65085 8.78683 5.62987 8.51621C5.60889 8.24559 5.5243 7.98375 5.383 7.752C4.443 6.209 6.209 4.442 7.753 5.382C8.753 5.99 10.049 5.452 10.325 4.317Z" stroke="currentColor" fill="none" stroke-width="2" stroke-linecap="round" stroke-linejoin="round" />
			<path d="M12 15C13.6569 15 15 13.6569 15 12C15 10.3431 13.6569 9 12 9C10.3431 9 9 10.3431 9 12C9 13.6569 10.3431 15 12 15Z" stroke="currentColor" fill="none" stroke-width="2" stroke-linecap="round" stroke-linejoin="round" />
		</symbol>
		<!--  -->
		<!--  -->
		<!--  -->
	</defs>
</svg>